<svg xmlns="http://www.w3.org/2000/svg" viewBox="0 0 64 64" role="img" aria-label="MariaDB">
  <rect width="64" height="64" rx="16" fill="#eef8ff"/>
  <path d="M15 40c7.5 5.6 21.7 6 31.1-2.5 3.8-3.4 5.5-7.5 5-10.4-.3-1.6-1.2-2.8-2.7-3.6-4.2-2.3-9.4.4-14.7 5.9-4.8 5-9.9 9.2-18.7 10.6Z" fill="#003545"/>
  <path d="M15 40c9.7-1.2 15.6-6.4 20.4-11 3.7-3.5 7-5.5 10-5.1 1.6.2 2.9.9 3.8 2.1-.4-2-1.9-3.6-4.1-4.3-4.6-1.5-9.8 2.4-14.8 7.9C25.7 34.7 21.2 38.5 15 40Z" fill="#c0765a"/>
  <circle cx="44.6" cy="27.6" r="1.7" fill="#fff"/>
  <path d="M16 44h32v4H16z" fill="#003545" opacity=".16"/>
</svg>
